<?xml version="1.0" encoding="utf-8"?>
<!-- Generator: Adobe Illustrator 25.0.0, SVG Export Plug-In . SVG Version: 6.00 Build 0)  -->
<svg version="1.1" id="图层_1" xmlns="http://www.w3.org/2000/svg" xmlns:xlink="http://www.w3.org/1999/xlink" x="0px" y="0px"
	 viewBox="0 0 1920 1080" style="enable-background:new 0 0 1920 1080;" xml:space="preserve">
<style type="text/css">
	.st0{fill-rule:evenodd;clip-rule:evenodd;fill:#2E3A4C;}
	.st1{filter:url(#Adobe_OpacityMaskFilter);}
	.st2{fill-rule:evenodd;clip-rule:evenodd;fill:#FFFFFF;}
	.st3{opacity:2.922247e-02;mask:url(#mask-2_1_);fill-rule:evenodd;clip-rule:evenodd;fill:#FFFFFF;enable-background:new    ;}
	.st4{filter:url(#Adobe_OpacityMaskFilter_1_);}
	.st5{opacity:0.1;mask:url(#mask-2_2_);fill-rule:evenodd;clip-rule:evenodd;fill:#409EFF;enable-background:new    ;}
	.st6{filter:url(#Adobe_OpacityMaskFilter_2_);}
	.st7{opacity:3.000000e-02;mask:url(#mask-2_3_);fill-rule:evenodd;clip-rule:evenodd;fill:#FFFFFF;enable-background:new    ;}
	.st8{filter:url(#Adobe_OpacityMaskFilter_3_);}
	.st9{opacity:0.1;mask:url(#mask-2_4_);fill-rule:evenodd;clip-rule:evenodd;fill:#409EFF;enable-background:new    ;}
	.st10{filter:url(#Adobe_OpacityMaskFilter_4_);}
	.st11{opacity:0.1;mask:url(#mask-2_5_);fill-rule:evenodd;clip-rule:evenodd;fill:#409EFF;enable-background:new    ;}
	.st12{filter:url(#Adobe_OpacityMaskFilter_5_);}
	.st13{opacity:3.000000e-02;mask:url(#mask-2_6_);fill-rule:evenodd;clip-rule:evenodd;fill:#FFFFFF;enable-background:new    ;}
</style>
<g id="页面-1">
	<g id="bg2">
		<g id="矩形">
			<rect id="path-1_1_" y="0" class="st0" width="1920" height="1080"/>
		</g>
		<defs>
			<filter id="Adobe_OpacityMaskFilter" filterUnits="userSpaceOnUse" x="-97" y="-98" width="754" height="510">
				<feColorMatrix  type="matrix" values="1 0 0 0 0  0 1 0 0 0  0 0 1 0 0  0 0 0 1 0"/>
			</filter>
		</defs>
		<mask maskUnits="userSpaceOnUse" x="-97" y="-98" width="754" height="510" id="mask-2_1_">
			<g class="st1">
				<rect id="path-1_2_" y="0" class="st2" width="1920" height="1080"/>
			</g>
		</mask>
		<path id="矩形_1_" class="st3" d="M61-98h438c87.3,0,158,70.7,158,158v194c0,87.3-70.7,158-158,158H61c-87.3,0-158-70.7-158-158
			V60C-97-27.3-26.3-98,61-98z"/>
		<defs>
			<filter id="Adobe_OpacityMaskFilter_1_" filterUnits="userSpaceOnUse" x="439" y="-98" width="296" height="296">
				<feColorMatrix  type="matrix" values="1 0 0 0 0  0 1 0 0 0  0 0 1 0 0  0 0 0 1 0"/>
			</filter>
		</defs>
		<mask maskUnits="userSpaceOnUse" x="439" y="-98" width="296" height="296" id="mask-2_2_">
			<g class="st4">
				<rect id="path-1_3_" y="0" class="st2" width="1920" height="1080"/>
			</g>
		</mask>
		<path id="矩形_2_" class="st5" d="M524-98h126c46.9,0,85,38.1,85,85v126c0,46.9-38.1,85-85,85H524c-46.9,0-85-38.1-85-85V-13
			C439-59.9,477.1-98,524-98z"/>
		<defs>
			<filter id="Adobe_OpacityMaskFilter_2_" filterUnits="userSpaceOnUse" x="1062" y="875" width="754" height="510">
				<feColorMatrix  type="matrix" values="1 0 0 0 0  0 1 0 0 0  0 0 1 0 0  0 0 0 1 0"/>
			</filter>
		</defs>
		<mask maskUnits="userSpaceOnUse" x="1062" y="875" width="754" height="510" id="mask-2_3_">
			<g class="st6">
				<rect id="path-1_4_" y="0" class="st2" width="1920" height="1080"/>
			</g>
		</mask>
		<path id="矩形_3_" class="st7" d="M1220,875h438c87.3,0,158,70.7,158,158v194c0,87.3-70.7,158-158,158h-438
			c-87.3,0-158-70.7-158-158v-194C1062,945.7,1132.7,875,1220,875z"/>
		<defs>
			<filter id="Adobe_OpacityMaskFilter_3_" filterUnits="userSpaceOnUse" x="1305" y="784" width="296" height="296">
				<feColorMatrix  type="matrix" values="1 0 0 0 0  0 1 0 0 0  0 0 1 0 0  0 0 0 1 0"/>
			</filter>
		</defs>
		<mask maskUnits="userSpaceOnUse" x="1305" y="784" width="296" height="296" id="mask-2_4_">
			<g class="st8">
				<rect id="path-1_5_" y="0" class="st2" width="1920" height="1080"/>
			</g>
		</mask>
		<path id="矩形_4_" class="st9" d="M1390,784h126c46.9,0,85,38.1,85,85v126c0,46.9-38.1,85-85,85h-126c-46.9,0-85-38.1-85-85V869
			C1305,822.1,1343.1,784,1390,784z"/>
		<defs>
			<filter id="Adobe_OpacityMaskFilter_4_" filterUnits="userSpaceOnUse" x="1326" y="147" width="163" height="162">
				<feColorMatrix  type="matrix" values="1 0 0 0 0  0 1 0 0 0  0 0 1 0 0  0 0 0 1 0"/>
			</filter>
		</defs>
		<mask maskUnits="userSpaceOnUse" x="1326" y="147" width="163" height="162" id="mask-2_5_">
			<g class="st10">
				<rect id="path-1_6_" y="0" class="st2" width="1920" height="1080"/>
			</g>
		</mask>
		<path id="矩形备份-3" class="st11" d="M1352,147h111c14.4,0,26,11.6,26,26v110c0,14.4-11.6,26-26,26h-111
			c-14.4,0-26-11.6-26-26V173C1326,158.6,1337.6,147,1352,147z"/>
		<defs>
			<filter id="Adobe_OpacityMaskFilter_5_" filterUnits="userSpaceOnUse" x="1408" y="107" width="163" height="162">
				<feColorMatrix  type="matrix" values="1 0 0 0 0  0 1 0 0 0  0 0 1 0 0  0 0 0 1 0"/>
			</filter>
		</defs>
		<mask maskUnits="userSpaceOnUse" x="1408" y="107" width="163" height="162" id="mask-2_6_">
			<g class="st12">
				<rect id="path-1_7_" y="0" class="st2" width="1920" height="1080"/>
			</g>
		</mask>
		<path id="矩形备份-3_1_" class="st13" d="M1434,107h111c14.4,0,26,11.6,26,26v110c0,14.4-11.6,26-26,26h-111
			c-14.4,0-26-11.6-26-26V133C1408,118.6,1419.6,107,1434,107z"/>
	</g>
</g>
</svg>
